{
  "title": "Designated Survivor S01E01 Pilot 1080p WEB-DL HEVC DD5.1 x265",
  "uid": 15877781,
  "size": 738370223,
  "categoryP": "video",
  "categoryS": "hd___tv_shows",
  "magnet": "?xt=urn:btih:4490fac0068ba6e686757d851782b7fdcba5e9c0&amp;dn=Designated+Survivor+S01E01+Pilot+1080p+WEB-DL+HEVC+DD5.1+x265&amp;tr=udp%3A%2F%2Ftracker.leechers-paradise.org%3A6969&amp;tr=udp%3A%2F%2Fzer0day.ch%3A1337&amp;tr=udp%3A%2F%2Fopen.demonii.com%3A1337&amp;tr=udp%3A%2F%2Ftracker.coppersurfer.tk%3A6969&amp;tr=udp%3A%2F%2Fexodus.desync.com%3A6969",
  "seeders": 45,
  "leechers": 8,
  "uploader": "nayhtut",
  "files": 1,
  "time": 1474548829,
  "description": "[Screenshots Gallery Link]\r\n\r\n[http://postimg.org/gallery/lo4ipq4k]\r\n\r\nSource:Designated Survivor S01E01 Pilot 1080p WEB-DL DD5.1 H264-AG(1.65 GB)\r\n\r\n \r\nComplete name: Designated.Survivor.S01E01.Pilot.1080p.WEB-DL.HEVC.DD5.1.x265.mkv\r\nFormat                                   : Matroska\r\nFormat version                           : Version 4 / Version 2\r\nFile size                                : 704 MiB\r\nDuration                                 : 42mn 35s\r\nOverall bit rate                         : 2 312 Kbps\r\nWriting application                      : Lavf57.25.100\r\nWriting library                          : Lavf57.25.100\r\n\r\nVideo\r\n\r\nID                                       : 1\r\nFormat                                   : V_MPEGH/ISO/HEVC\r\nCodec ID                                 : V_MPEGH/ISO/HEVC\r\nDuration                                 : 42mn 35s\r\nBit rate                                 : 1 882 Kbps\r\nWidth                                    : 1 920 pixels\r\nHeight                                   : 1 080 pixels\r\nDisplay aspect ratio                     : 16:9\r\nFrame rate                               : 25.000 fps\r\nBits/(Pixel*Frame)                       : 0.036\r\nStream size                              : 573 MiB (81%)\r\nWriting library                          : Lavc57.48.101 libx265\r\nLanguage                                 : English\r\nDefault                                  : Yes\r\nForced                                   : No\r\nDURATION                                 : 00:42:35.051000000\r\n\r\nAudio\r\n\r\nID                                       : 2\r\nFormat                                   : AC-3\r\nFormat/Info                              : Audio Coding 3\r\nMode extension                           : CM (complete main)\r\nFormat settings, Endianness              : Big\r\nCodec ID                                 : A_AC3\r\nDuration                                 : 42mn 35s\r\nBit rate mode                            : Constant\r\nBit rate                                 : 384 Kbps\r\nChannel(s)                               : 6 channels\r\nChannel positions                        : Front: L C R, Side: L R, LFE\r\nSampling rate                            : 48.0 KHz\r\nBit depth                                : 16 bits\r\nCompression mode                         : Lossy\r\nStream size                              : 117 MiB (17%)\r\nWriting library                          : Lavc57.24.102 ac3\r\nLanguage                                 : English\r\nDefault                                  : Yes\r\nForced                                   : No\r\nDURATION                                 : 00:42:35.103000000\r\n\r\nText\r\n\r\nID                                       : 3\r\nFormat                                   : ASS\r\nCodec ID                                 : S_TEXT/ASS\r\nWriting library                          : Lavc57.48.101 ssa\r\nLanguage                                 : English",
  "parsed": {
    "xt": "urn:btih:4490fac0068ba6e686757d851782b7fdcba5e9c0",
    "dn": "Designated Survivor S01E01 Pilot 1080p WEB-DL HEVC DD5.1 x265",
    "tr": [
      "udp://exodus.desync.com:6969",
      "udp://open.demonii.com:1337",
      "udp://tracker.coppersurfer.tk:6969",
      "udp://tracker.leechers-paradise.org:6969",
      "udp://zer0day.ch:1337"
    ],
    "infoHash": "4490fac0068ba6e686757d851782b7fdcba5e9c0",
    "infoHashBuffer": {
      "type": "Buffer",
      "data": [
        68,
        144,
        250,
        192,
        6,
        139,
        166,
        230,
        134,
        117,
        125,
        133,
        23,
        130,
        183,
        253,
        203,
        165,
        233,
        192
      ]
    },
    "name": "Designated Survivor S01E01 Pilot 1080p WEB-DL HEVC DD5.1 x265",
    "announce": [
      "udp://exodus.desync.com:6969",
      "udp://open.demonii.com:1337",
      "udp://tracker.coppersurfer.tk:6969",
      "udp://tracker.leechers-paradise.org:6969",
      "udp://zer0day.ch:1337"
    ],
    "urlList": []
  },
  "previous": 53,
  "peers": 43,
  "last_updated": "2016-12-24T23:36:00.174Z"
}